<mxfile host="app.diagrams.net" modified="2024-05-27T16:18:35.340Z" agent="Mozilla/5.0 (Windows NT 10.0; Win64; x64) AppleWebKit/537.36 (KHTML, like Gecko) Chrome/122.0.6261.1097 YaBrowser/24.4.4.1097 (beta) Yowser/2.5 Safari/537.36" etag="pG_Zlvw5bkTucN65oZYk" version="24.4.9" type="github">
  <diagram name="Страница — 1" id="JdcC9SvA4tQx2oKgqWM8">
    <mxGraphModel dx="932" dy="876" grid="1" gridSize="10" guides="1" tooltips="1" connect="1" arrows="1" fold="1" page="1" pageScale="1" pageWidth="827" pageHeight="1169" math="0" shadow="0">
      <root>
        <mxCell id="0" />
        <mxCell id="1" parent="0" />
        <mxCell id="q8sq58qfHJB3ALEbRJc8-1" value="Сотрудник 1" style="shape=umlActor;verticalLabelPosition=bottom;verticalAlign=top;html=1;outlineConnect=0;" vertex="1" parent="1">
          <mxGeometry x="140" y="180" width="30" height="60" as="geometry" />
        </mxCell>
        <mxCell id="q8sq58qfHJB3ALEbRJc8-2" value="" style="endArrow=none;html=1;rounded=0;" edge="1" parent="1">
          <mxGeometry width="50" height="50" relative="1" as="geometry">
            <mxPoint x="154.5" y="680" as="sourcePoint" />
            <mxPoint x="154.5" y="250" as="targetPoint" />
          </mxGeometry>
        </mxCell>
        <mxCell id="q8sq58qfHJB3ALEbRJc8-3" value="Отдел" style="rounded=0;whiteSpace=wrap;html=1;" vertex="1" parent="1">
          <mxGeometry x="230" y="180" width="120" height="60" as="geometry" />
        </mxCell>
        <mxCell id="q8sq58qfHJB3ALEbRJc8-4" value="&lt;div style=&quot;&quot;&gt;&lt;font style=&quot;font-size: 12px;&quot;&gt;Служба информационной безопасности&lt;/font&gt;&lt;/div&gt;" style="rounded=0;whiteSpace=wrap;html=1;" vertex="1" parent="1">
          <mxGeometry x="420" y="180" width="120" height="70" as="geometry" />
        </mxCell>
        <mxCell id="q8sq58qfHJB3ALEbRJc8-5" value="" style="endArrow=none;html=1;rounded=0;" edge="1" parent="1">
          <mxGeometry width="50" height="50" relative="1" as="geometry">
            <mxPoint x="290" y="360" as="sourcePoint" />
            <mxPoint x="290" y="240" as="targetPoint" />
          </mxGeometry>
        </mxCell>
        <mxCell id="q8sq58qfHJB3ALEbRJc8-9" value="" style="endArrow=classic;html=1;rounded=0;" edge="1" parent="1">
          <mxGeometry width="50" height="50" relative="1" as="geometry">
            <mxPoint x="160" y="280" as="sourcePoint" />
            <mxPoint x="290" y="280" as="targetPoint" />
          </mxGeometry>
        </mxCell>
        <mxCell id="q8sq58qfHJB3ALEbRJc8-10" value="Подача заявки на&lt;div&gt;&amp;nbsp;получение xml файла&lt;div&gt;&lt;br&gt;&lt;/div&gt;&lt;/div&gt;" style="edgeLabel;html=1;align=center;verticalAlign=middle;resizable=0;points=[];" vertex="1" connectable="0" parent="q8sq58qfHJB3ALEbRJc8-9">
          <mxGeometry y="1" relative="1" as="geometry">
            <mxPoint y="31" as="offset" />
          </mxGeometry>
        </mxCell>
        <mxCell id="q8sq58qfHJB3ALEbRJc8-11" value="" style="endArrow=classic;html=1;rounded=0;" edge="1" parent="1">
          <mxGeometry width="50" height="50" relative="1" as="geometry">
            <mxPoint x="290" y="280" as="sourcePoint" />
            <mxPoint x="480" y="280" as="targetPoint" />
          </mxGeometry>
        </mxCell>
        <mxCell id="q8sq58qfHJB3ALEbRJc8-13" value="Заявка на&amp;nbsp;&lt;div&gt;одобрение передачи&lt;/div&gt;" style="edgeLabel;html=1;align=center;verticalAlign=middle;resizable=0;points=[];" vertex="1" connectable="0" parent="q8sq58qfHJB3ALEbRJc8-11">
          <mxGeometry x="-0.1368" relative="1" as="geometry">
            <mxPoint x="18" y="20" as="offset" />
          </mxGeometry>
        </mxCell>
        <mxCell id="q8sq58qfHJB3ALEbRJc8-12" value="" style="endArrow=none;html=1;rounded=0;entryX=0.5;entryY=1;entryDx=0;entryDy=0;" edge="1" parent="1" target="q8sq58qfHJB3ALEbRJc8-4">
          <mxGeometry width="50" height="50" relative="1" as="geometry">
            <mxPoint x="480" y="680" as="sourcePoint" />
            <mxPoint x="479" y="260" as="targetPoint" />
          </mxGeometry>
        </mxCell>
        <mxCell id="q8sq58qfHJB3ALEbRJc8-14" value="" style="endArrow=classic;html=1;rounded=0;" edge="1" parent="1">
          <mxGeometry width="50" height="50" relative="1" as="geometry">
            <mxPoint x="480" y="400" as="sourcePoint" />
            <mxPoint x="160" y="400" as="targetPoint" />
          </mxGeometry>
        </mxCell>
        <mxCell id="q8sq58qfHJB3ALEbRJc8-15" value="&lt;font style=&quot;font-size: 13px;&quot;&gt;Проверка и передача xml&lt;/font&gt;" style="edgeLabel;html=1;align=center;verticalAlign=middle;resizable=0;points=[];" vertex="1" connectable="0" parent="q8sq58qfHJB3ALEbRJc8-14">
          <mxGeometry x="-0.1368" relative="1" as="geometry">
            <mxPoint x="48" y="20" as="offset" />
          </mxGeometry>
        </mxCell>
        <mxCell id="q8sq58qfHJB3ALEbRJc8-16" value="" style="endArrow=none;html=1;rounded=0;" edge="1" parent="1">
          <mxGeometry width="50" height="50" relative="1" as="geometry">
            <mxPoint x="289.5" y="560" as="sourcePoint" />
            <mxPoint x="289.5" y="440" as="targetPoint" />
          </mxGeometry>
        </mxCell>
        <mxCell id="q8sq58qfHJB3ALEbRJc8-17" value="" style="endArrow=classic;html=1;rounded=0;" edge="1" parent="1">
          <mxGeometry width="50" height="50" relative="1" as="geometry">
            <mxPoint x="290" y="480" as="sourcePoint" />
            <mxPoint x="480" y="480" as="targetPoint" />
          </mxGeometry>
        </mxCell>
        <mxCell id="q8sq58qfHJB3ALEbRJc8-19" value="&lt;font style=&quot;font-size: 11px;&quot;&gt;Запись в базу данных&lt;/font&gt;&lt;div style=&quot;&quot;&gt;&lt;font style=&quot;font-size: 11px;&quot;&gt;даты и информации о сотруднике&lt;/font&gt;&lt;/div&gt;&lt;div style=&quot;&quot;&gt;&lt;font style=&quot;font-size: 11px;&quot;&gt;&amp;nbsp;запросившего информацию&lt;/font&gt;&lt;/div&gt;" style="edgeLabel;html=1;align=center;verticalAlign=middle;resizable=0;points=[];" vertex="1" connectable="0" parent="q8sq58qfHJB3ALEbRJc8-17">
          <mxGeometry x="0.1846" y="-3" relative="1" as="geometry">
            <mxPoint x="-23" y="27" as="offset" />
          </mxGeometry>
        </mxCell>
        <mxCell id="q8sq58qfHJB3ALEbRJc8-20" value="" style="endArrow=classic;html=1;rounded=0;" edge="1" parent="1">
          <mxGeometry width="50" height="50" relative="1" as="geometry">
            <mxPoint x="160" y="600" as="sourcePoint" />
            <mxPoint x="480" y="600" as="targetPoint" />
          </mxGeometry>
        </mxCell>
        <mxCell id="q8sq58qfHJB3ALEbRJc8-21" value="&lt;font style=&quot;font-size: 14px;&quot;&gt;Парс xml и отправка&lt;/font&gt;&lt;div style=&quot;font-size: 14px;&quot;&gt;&lt;font style=&quot;font-size: 14px;&quot;&gt;&amp;nbsp;его в виде отчёта для последующей&lt;/font&gt;&lt;/div&gt;&lt;div style=&quot;font-size: 14px;&quot;&gt;&lt;font style=&quot;font-size: 14px;&quot;&gt;&amp;nbsp;проверки в службе безопасности&amp;nbsp;&lt;/font&gt;&lt;/div&gt;" style="edgeLabel;html=1;align=center;verticalAlign=middle;resizable=0;points=[];" vertex="1" connectable="0" parent="q8sq58qfHJB3ALEbRJc8-20">
          <mxGeometry y="3" relative="1" as="geometry">
            <mxPoint y="43" as="offset" />
          </mxGeometry>
        </mxCell>
        <mxCell id="q8sq58qfHJB3ALEbRJc8-24" value="" style="endArrow=classic;html=1;rounded=0;" edge="1" parent="1">
          <mxGeometry width="50" height="50" relative="1" as="geometry">
            <mxPoint x="480" y="600" as="sourcePoint" />
            <mxPoint x="670" y="600" as="targetPoint" />
          </mxGeometry>
        </mxCell>
        <mxCell id="q8sq58qfHJB3ALEbRJc8-26" value="&lt;div style=&quot;&quot;&gt;&lt;font style=&quot;font-size: 12px;&quot;&gt;Отдел / сотрудник&lt;/font&gt;&lt;/div&gt;&lt;div style=&quot;&quot;&gt;&lt;font style=&quot;font-size: 12px;&quot;&gt;нуждающийся в отчёте&lt;/font&gt;&lt;/div&gt;" style="rounded=0;whiteSpace=wrap;html=1;" vertex="1" parent="1">
          <mxGeometry x="610" y="180" width="120" height="70" as="geometry" />
        </mxCell>
        <mxCell id="q8sq58qfHJB3ALEbRJc8-27" value="" style="endArrow=none;html=1;rounded=0;entryX=0.5;entryY=1;entryDx=0;entryDy=0;" edge="1" parent="1">
          <mxGeometry width="50" height="50" relative="1" as="geometry">
            <mxPoint x="670" y="680" as="sourcePoint" />
            <mxPoint x="670" y="250" as="targetPoint" />
          </mxGeometry>
        </mxCell>
        <mxCell id="q8sq58qfHJB3ALEbRJc8-28" value="&lt;font style=&quot;font-size: 16px;&quot;&gt;Отправка отчёта&lt;/font&gt;" style="edgeLabel;html=1;align=center;verticalAlign=middle;resizable=0;points=[];" vertex="1" connectable="0" parent="1">
          <mxGeometry x="569.9999999999998" y="630" as="geometry" />
        </mxCell>
      </root>
    </mxGraphModel>
  </diagram>
</mxfile>
